<svg width="182" height="181" viewBox="0 0 182 181" fill="none" xmlns="http://www.w3.org/2000/svg">
<path d="M0.5 159.155V137.31H44.1897V181H0.5V159.155ZM37.9483 159.155V143.552H6.74138V174.759H37.9483V159.155ZM12.9828 159.155V149.793H31.7069V168.517H12.9828V159.155ZM56.6724 177.879V174.759H50.431V162.276H56.6724V143.552H62.9138V137.31H50.431V131.069H25.4655V124.828H31.7069V118.586H19.2241V131.069H12.9828V124.828H0.5V118.586H12.9828V106.103H6.74138V112.345H0.5V99.8621H12.9828V106.103H19.2241V112.345H25.4655V106.103H31.7069V112.345H44.1897V106.103H37.9483V99.8621H19.2241V93.6207H37.9483V87.3793H19.2241V81.1379H12.9828V87.3793H0.5V68.6552H6.74138V74.8966H44.1897V68.6552H37.9483V62.4138H25.4655V68.6552H19.2241V62.4138H6.74138V49.931H19.2241V62.4138H25.4655V56.1724H37.9483V49.931H44.1897V56.1724H37.9483V62.4138H44.1897V68.6552H50.431V56.1724H56.6724V49.931H50.431V31.2069H62.9138V37.4483H69.1552V43.6897H62.9138V49.931H69.1552V87.3793H56.6724V81.1379H50.431V87.3793H44.1897V93.6207H37.9483V99.8621H44.1897V106.103H50.431V112.345H62.9138V106.103H56.6724V99.8621H50.431V93.6207H62.9138V106.103H69.1552V93.6207H75.3966V106.103H81.6379V87.3793H87.8793V81.1379H94.1207V87.3793H87.8793V93.6207H94.1207V99.8621H112.845V93.6207H106.603V87.3793H100.362V74.8966H94.1207V68.6552H100.362V62.4138H106.603V56.1724H100.362V49.931H94.1207V62.4138H87.8793V56.1724H81.6379V62.4138H75.3966V56.1724H81.6379V49.931H75.3966V31.2069H69.1552V24.9655H75.3966V31.2069H81.6379V6.24138H87.8793V18.7241H100.362V12.4828H94.1207V0H106.603V6.24138H100.362V12.4828H112.845V6.24138H119.086V0H131.569V18.7241H119.086V12.4828H112.845V24.9655H119.086V43.6897H125.328V37.4483H131.569V68.6552H144.052V62.4138H137.81V49.931H150.293V68.6552H162.776V62.4138H156.534V49.931H162.776V62.4138H169.017V56.1724H181.5V68.6552H175.259V62.4138H169.017V68.6552H162.776V87.3793H169.017V93.6207H162.776V99.8621H150.293V106.103H144.052V112.345H131.569V106.103H125.328V99.8621H119.086V112.345H125.328V118.586H144.052V124.828H156.534V118.586H150.293V112.345H156.534V106.103H162.776V112.345H169.017V118.586H175.259V106.103H169.017V99.8621H181.5V118.586H175.259V131.069H181.5V143.552H175.259V162.276H181.5V168.517H162.776V181H144.052V174.759H156.534V168.517H144.052V156.034H137.81V168.517H131.569V174.759H137.81V181H125.328V162.276H119.086V174.759H112.845V168.517H106.603V143.552H112.845V162.276H119.086V143.552H125.328V131.069H119.086V124.828H112.845V118.586H119.086V112.345H112.845V106.103H106.603V131.069H112.845V137.31H100.362V149.793H94.1207V162.276H100.362V168.517H94.1207V174.759H106.603V181H94.1207V174.759H87.8793V168.517H81.6379V181H56.6724V177.879ZM75.3966 168.517V162.276H81.6379V143.552H69.1552V149.793H75.3966V156.034H62.9138V162.276H56.6724V168.517H62.9138V174.759H75.3966V168.517ZM162.776 162.276V156.034H169.017V143.552H175.259V137.31H169.017V118.586H162.776V137.31H169.017V143.552H162.776V149.793H156.534V168.517H162.776V162.276ZM131.569 159.155V156.034H125.328V162.276H131.569V159.155ZM94.1207 146.672V143.552H87.8793V149.793H94.1207V146.672ZM150.293 140.431V131.069H131.569V149.793H150.293V140.431ZM137.81 140.431V137.31H144.052V143.552H137.81V140.431ZM87.8793 134.19V131.069H100.362V124.828H87.8793V118.586H81.6379V124.828H87.8793V131.069H75.3966V124.828H69.1552V131.069H62.9138V124.828H56.6724V118.586H50.431V112.345H44.1897V118.586H37.9483V124.828H44.1897V118.586H50.431V124.828H56.6724V131.069H62.9138V137.31H87.8793V134.19ZM69.1552 115.466V112.345H62.9138V118.586H69.1552V115.466ZM100.362 112.345V106.103H87.8793V112.345H94.1207V118.586H100.362V112.345ZM137.81 102.983V99.8621H131.569V106.103H137.81V102.983ZM150.293 96.7414V93.6207H156.534V74.8966H150.293V81.1379H144.052V87.3793H137.81V81.1379H125.328V74.8966H119.086V68.6552H125.328V49.931H119.086V43.6897H112.845V37.4483H106.603V43.6897H100.362V24.9655H106.603V31.2069H112.845V24.9655H106.603V18.7241H100.362V24.9655H94.1207V43.6897H100.362V49.931H106.603V43.6897H112.845V62.4138H106.603V68.6552H100.362V74.8966H106.603V87.3793H112.845V81.1379H125.328V87.3793H131.569V93.6207H144.052V99.8621H150.293V96.7414ZM144.052 90.5V87.3793H150.293V93.6207H144.052V90.5ZM44.1897 84.2586V81.1379H50.431V74.8966H44.1897V81.1379H37.9483V87.3793H44.1897V84.2586ZM62.9138 71.7759V68.6552H56.6724V74.8966H62.9138V71.7759ZM62.9138 40.569V37.4483H56.6724V43.6897H62.9138V40.569ZM87.8793 37.4483V31.2069H81.6379V43.6897H87.8793V37.4483ZM125.328 9.36207V6.24138H119.086V12.4828H125.328V9.36207ZM175.259 177.879V174.759H181.5V181H175.259V177.879ZM175.259 87.3793V81.1379H169.017V74.8966H175.259V81.1379H181.5V93.6207H175.259V87.3793ZM0.5 21.8448V0H44.1897V43.6897H0.5V21.8448ZM37.9483 21.8448V6.24138H6.74138V37.4483H37.9483V21.8448ZM12.9828 21.8448V12.4828H31.7069V31.2069H12.9828V21.8448ZM137.81 21.8448V0H181.5V43.6897H137.81V21.8448ZM175.259 21.8448V6.24138H144.052V37.4483H175.259V21.8448ZM150.293 21.8448V12.4828H169.017V31.2069H150.293V21.8448ZM50.431 21.8448V18.7241H56.6724V24.9655H50.431V21.8448ZM62.9138 15.6034V12.4828H56.6724V0H62.9138V6.24138H69.1552V0H75.3966V6.24138H69.1552V18.7241H62.9138V15.6034Z" fill="#171717"/>
</svg>
