<svg width="287" height="251" viewBox="0 0 287 251" fill="none" xmlns="http://www.w3.org/2000/svg">
<path fill-rule="evenodd" clip-rule="evenodd" d="M0 10C0 4.47715 4.47715 0 10 0H277C282.523 0 287 4.47715 287 10V62C278.716 62 272 68.7157 272 77C272 77.8518 272.071 78.687 272.207 79.5C272.071 80.313 272 81.1482 272 82C272 90.2843 278.716 97 287 97V241C287 246.523 282.523 251 277 251H10C4.47715 251 0 246.523 0 241V97C8.28427 97 15 90.2843 15 82C15 73.7157 8.28427 67 0 67V10Z" fill="white"/>
<path d="M15 82L272 82" stroke="#B4B4B4" stroke-dasharray="5 5"/>
</svg>
