<svg width="327" height="291" viewBox="0 0 327 291" fill="none" xmlns="http://www.w3.org/2000/svg">
<g filter="url(#filter0_d_91_2292)">
<path fill-rule="evenodd" clip-rule="evenodd" d="M20 27C20 21.4772 24.4772 17 30 17H297C302.523 17 307 21.4772 307 27V79C298.716 79 292 85.7157 292 94C292 94.8518 292.071 95.687 292.207 96.5C292.071 97.313 292 98.1482 292 99C292 107.284 298.716 114 307 114V258C307 263.523 302.523 268 297 268H30C24.4772 268 20 263.523 20 258V114C28.2843 114 35 107.284 35 99C35 90.7157 28.2843 84 20 84V27Z" fill="white"/>
<path d="M35 99L292 99" stroke="#B4B4B4" stroke-dasharray="5 5"/>
</g>
<defs>
<filter id="filter0_d_91_2292" x="0" y="0" width="327" height="291" filterUnits="userSpaceOnUse" color-interpolation-filters="sRGB">
<feFlood flood-opacity="0" result="BackgroundImageFix"/>
<feColorMatrix in="SourceAlpha" type="matrix" values="0 0 0 0 0 0 0 0 0 0 0 0 0 0 0 0 0 0 127 0" result="hardAlpha"/>
<feOffset dy="3"/>
<feGaussianBlur stdDeviation="10"/>
<feComposite in2="hardAlpha" operator="out"/>
<feColorMatrix type="matrix" values="0 0 0 0 0 0 0 0 0 0 0 0 0 0 0 0 0 0 0.15 0"/>
<feBlend mode="normal" in2="BackgroundImageFix" result="effect1_dropShadow_91_2292"/>
<feBlend mode="normal" in="SourceGraphic" in2="effect1_dropShadow_91_2292" result="shape"/>
</filter>
</defs>
</svg>
